<svg xmlns="http://www.w3.org/2000/svg" width="226.8" height="155.9" viewBox="0 0 226.8 155.9"><style>.st0{fill:#fec214}</style><path class="st0" d="M170.1 127.6c15.7 0 28.3-12.7 28.3-28.3S185.7 71 170.1 71H56.7c-7.8 0-14.2-6.3-14.2-14.2s6.3-14.2 14.2-14.2h42.5V28.3H56.7C41 28.3 28.3 41 28.3 56.7S41 85 56.7 85h113.4c7.8 0 14.2 6.3 14.2 14.2s-6.3 14.2-14.2 14.2h-49.6V92.1h-14.2v35.4h63.8z"/><path class="st0" d="M99.2 127.6v-14.2H56.7c-7.8 0-14.2-6.3-14.2-14.2H28.3c0 15.7 12.7 28.3 28.3 28.3h42.6zM184.3 56.7c0 3.4-1.2 6.4-3.1 8.9 4.6 1.5 8.8 4 12.4 7.1 3.1-4.5 4.9-10 4.9-16 0-15.7-12.7-28.3-28.3-28.3h-63.8v35.4h14.2V42.5h49.6c7.7 0 14.1 6.4 14.1 14.2z"/><path class="st0" d="M0 0v155.9h226.8V0H0zm212.6 141.7H14.2V14.2h198.4v127.5z"/></svg>